<svg width="17" height="17" viewBox="0 0 17 17" fill="none" xmlns="http://www.w3.org/2000/svg">
<path fill-rule="evenodd" clip-rule="evenodd" d="M1.54545 2.125H15.4545C16.3081 2.125 17 2.81692 17 3.67045V4.44319H0V3.67045C0 2.81692 0.691921 2.125 1.54545 2.125ZM0 7.53408V12.9432C0 13.7967 0.691921 14.4886 1.54545 14.4886H15.4545C16.3081 14.4886 17 13.7967 17 12.9432V7.53408H0ZM14.2953 10.625H11.9771C11.7637 10.625 11.5908 10.798 11.5908 11.0114V11.7841C11.5908 11.9975 11.7637 12.1705 11.9771 12.1705H14.2953C14.5087 12.1705 14.6817 11.9975 14.6817 11.7841V11.0114C14.6817 10.798 14.5087 10.625 14.2953 10.625ZM4.00899 12.6409C4.09718 12.5758 4.17753 12.5022 4.25005 12.4199C4.32256 12.5022 4.40292 12.5758 4.49111 12.6409C4.5793 12.7061 4.67336 12.7612 4.77328 12.8063C4.8732 12.8514 4.97675 12.8855 5.08393 12.9086C5.1911 12.9316 5.29951 12.9432 5.40913 12.9432C5.45976 12.9432 5.51023 12.9407 5.56059 12.9357C5.61101 12.9307 5.661 12.9234 5.71062 12.9135C5.76029 12.9036 5.80932 12.8913 5.85777 12.8766C5.90617 12.8619 5.95377 12.8449 6.00058 12.8255C6.04733 12.8062 6.09301 12.7845 6.13764 12.7607C6.18232 12.7368 6.22567 12.7109 6.26774 12.6827C6.30982 12.6546 6.35046 12.6245 6.38956 12.5924C6.42871 12.5602 6.46616 12.5263 6.50192 12.4905C6.53772 12.4547 6.57167 12.4173 6.60381 12.3781C6.6359 12.339 6.66602 12.2984 6.69412 12.2563C6.72228 12.2142 6.74826 12.1709 6.77211 12.1262C6.79596 12.0816 6.81758 12.0359 6.83698 11.9891C6.85631 11.9423 6.87337 11.8947 6.88803 11.8463C6.90274 11.7979 6.91502 11.7489 6.9249 11.6992C6.93478 11.6496 6.94222 11.5996 6.94716 11.5492C6.9521 11.4988 6.95459 11.4483 6.95459 11.3977C6.95459 11.3471 6.9521 11.2966 6.94716 11.2462C6.94222 11.1958 6.93478 11.1458 6.9249 11.0962C6.91502 11.0466 6.90274 10.9975 6.88803 10.9491C6.87337 10.9007 6.85631 10.8531 6.83698 10.8063C6.81758 10.7595 6.79596 10.7138 6.77211 10.6692C6.74826 10.6245 6.72228 10.5812 6.69412 10.5391C6.66602 10.497 6.6359 10.4564 6.60381 10.4173C6.57167 10.3781 6.53772 10.3407 6.50192 10.3049C6.46616 10.2691 6.42871 10.2352 6.38956 10.203C6.35046 10.1709 6.30982 10.1408 6.26774 10.1127C6.22567 10.0846 6.18232 10.0586 6.13764 10.0347C6.09301 10.0109 6.04733 9.98926 6.00058 9.96992C5.95377 9.95053 5.90617 9.93348 5.85777 9.91882C5.80932 9.9041 5.76029 9.89183 5.71062 9.88195C5.661 9.87207 5.61101 9.86468 5.56059 9.85969C5.51023 9.85475 5.45976 9.85225 5.40913 9.85225C5.29951 9.85225 5.1911 9.86378 5.08393 9.88683C4.97675 9.90994 4.8732 9.944 4.77328 9.9891C4.67336 10.0343 4.5793 10.0893 4.49111 10.1545C4.40292 10.2196 4.32256 10.2932 4.25005 10.3755C4.17753 10.2932 4.09718 10.2196 4.00899 10.1545C3.92079 10.0893 3.82674 10.0343 3.72682 9.9891C3.62689 9.944 3.52335 9.90994 3.41617 9.88683C3.30899 9.86378 3.20058 9.85225 3.09096 9.85225C3.04034 9.85225 2.98985 9.85475 2.93948 9.85969C2.88911 9.86468 2.8391 9.87207 2.78946 9.88195C2.73981 9.89183 2.69077 9.9041 2.64233 9.91882C2.5939 9.93348 2.5463 9.95053 2.49953 9.96992C2.45277 9.98926 2.40707 10.0109 2.36244 10.0347C2.3178 10.0586 2.27443 10.0846 2.23235 10.1127C2.19026 10.1408 2.14966 10.1709 2.11053 10.203C2.0714 10.2352 2.03394 10.2691 1.99815 10.3049C1.96236 10.3407 1.92842 10.3781 1.8963 10.4173C1.86419 10.4564 1.83408 10.497 1.80596 10.5391C1.77784 10.5812 1.75184 10.6245 1.72799 10.6692C1.70413 10.7138 1.68251 10.7595 1.66314 10.8063C1.64377 10.8531 1.62674 10.9007 1.61205 10.9491C1.59736 10.9975 1.58507 11.0466 1.5752 11.0962C1.56532 11.1458 1.55791 11.1958 1.55294 11.2462C1.54798 11.2966 1.5455 11.3471 1.5455 11.3977C1.5455 11.4483 1.54798 11.4988 1.55294 11.5492C1.55791 11.5996 1.56532 11.6496 1.5752 11.6992C1.58507 11.7489 1.59736 11.7979 1.61205 11.8463C1.62674 11.8947 1.64377 11.9423 1.66314 11.9891C1.68251 12.0359 1.70413 12.0816 1.72799 12.1262C1.75184 12.1709 1.77784 12.2142 1.80596 12.2563C1.83408 12.2984 1.86419 12.339 1.8963 12.3781C1.92842 12.4173 1.96236 12.4547 1.99815 12.4905C2.03394 12.5263 2.0714 12.5602 2.11053 12.5924C2.14966 12.6245 2.19026 12.6546 2.23235 12.6827C2.27443 12.7109 2.3178 12.7368 2.36244 12.7607C2.40707 12.7845 2.45277 12.8062 2.49953 12.8255C2.5463 12.8449 2.5939 12.8619 2.64233 12.8766C2.69077 12.8913 2.73981 12.9036 2.78946 12.9135C2.8391 12.9234 2.88911 12.9307 2.93948 12.9357C2.98985 12.9407 3.04034 12.9432 3.09096 12.9432C3.20058 12.9432 3.30899 12.9316 3.41617 12.9086C3.52335 12.8855 3.62689 12.8514 3.72682 12.8063C3.82674 12.7612 3.92079 12.7061 4.00899 12.6409Z" fill="white" fill-opacity="0.5"/>
<path d="M14.2954 10.625H11.9771C11.7638 10.625 11.5908 10.798 11.5908 11.0114V11.7841C11.5908 11.9975 11.7638 12.1705 11.9771 12.1705H14.2954C14.5087 12.1705 14.6817 11.9975 14.6817 11.7841V11.0114C14.6817 10.798 14.5087 10.625 14.2954 10.625Z" fill="white" fill-opacity="0.17"/>
<path fill-rule="evenodd" clip-rule="evenodd" d="M4.25008 12.4199C4.17756 12.5022 4.09721 12.5758 4.00902 12.6409C3.92083 12.7061 3.82677 12.7612 3.72685 12.8063C3.62692 12.8514 3.52338 12.8855 3.4162 12.9086C3.30902 12.9316 3.20062 12.9432 3.09099 12.9432C3.04037 12.9432 2.98988 12.9407 2.93951 12.9357C2.88914 12.9307 2.83913 12.9234 2.78949 12.9135C2.73984 12.9036 2.6908 12.8913 2.64236 12.8766C2.59393 12.8619 2.54633 12.8449 2.49956 12.8255C2.4528 12.8062 2.4071 12.7845 2.36247 12.7607C2.31783 12.7368 2.27446 12.7109 2.23238 12.6827C2.19029 12.6546 2.14969 12.6245 2.11056 12.5924C2.07143 12.5602 2.03397 12.5263 1.99818 12.4905C1.96239 12.4547 1.92845 12.4173 1.89633 12.3781C1.86422 12.339 1.83411 12.2984 1.80599 12.2563C1.77787 12.2142 1.75188 12.1709 1.72802 12.1262C1.70416 12.0816 1.68254 12.0359 1.66317 11.9891C1.6438 11.9423 1.62677 11.8947 1.61208 11.8463C1.59739 11.7979 1.5851 11.7489 1.57523 11.6992C1.56535 11.6496 1.55794 11.5996 1.55298 11.5492C1.54801 11.4988 1.54553 11.4483 1.54553 11.3977C1.54553 11.3471 1.54801 11.2966 1.55298 11.2462C1.55794 11.1958 1.56535 11.1458 1.57523 11.0962C1.5851 11.0466 1.59739 10.9975 1.61208 10.9491C1.62677 10.9007 1.6438 10.8531 1.66317 10.8063C1.68254 10.7595 1.70416 10.7138 1.72802 10.6692C1.75188 10.6245 1.77787 10.5812 1.80599 10.5391C1.83411 10.497 1.86422 10.4564 1.89633 10.4173C1.92845 10.3781 1.96239 10.3407 1.99818 10.3049C2.03397 10.2691 2.07143 10.2352 2.11056 10.203C2.14969 10.1709 2.19029 10.1408 2.23238 10.1127C2.27446 10.0846 2.31783 10.0586 2.36247 10.0347C2.4071 10.0109 2.4528 9.98926 2.49956 9.96992C2.54633 9.95053 2.59393 9.93348 2.64236 9.91881C2.6908 9.9041 2.73984 9.89183 2.78949 9.88195C2.83913 9.87207 2.88914 9.86468 2.93951 9.85969C2.98988 9.85475 3.04037 9.85225 3.09099 9.85225C3.20062 9.85225 3.30902 9.86378 3.4162 9.88683C3.52338 9.90994 3.62692 9.944 3.72685 9.9891C3.82677 10.0343 3.92083 10.0893 4.00902 10.1545C4.09721 10.2196 4.17756 10.2932 4.25008 10.3755C4.32259 10.2932 4.40295 10.2196 4.49114 10.1545C4.57933 10.0893 4.67339 10.0343 4.77331 9.9891C4.87323 9.944 4.97678 9.90994 5.08396 9.88683C5.19113 9.86378 5.29954 9.85225 5.40916 9.85225C5.45979 9.85225 5.51026 9.85475 5.56062 9.85969C5.61104 9.86468 5.66103 9.87207 5.71065 9.88195C5.76032 9.89183 5.80936 9.9041 5.85781 9.91881C5.9062 9.93348 5.9538 9.95053 6.00061 9.96992C6.04736 9.98926 6.09304 10.0109 6.13767 10.0347C6.18235 10.0586 6.2257 10.0846 6.26777 10.1127C6.30985 10.1408 6.35049 10.1709 6.38959 10.203C6.42874 10.2352 6.46619 10.2691 6.50195 10.3049C6.53775 10.3407 6.5717 10.3781 6.60384 10.4173C6.63593 10.4564 6.66605 10.497 6.69415 10.5391C6.72231 10.5812 6.74829 10.6245 6.77214 10.6692C6.79599 10.7138 6.81762 10.7595 6.83701 10.8063C6.85634 10.8531 6.8734 10.9007 6.88806 10.9491C6.90277 10.9975 6.91505 11.0466 6.92493 11.0962C6.93481 11.1458 6.94225 11.1958 6.94719 11.2462C6.95213 11.2966 6.95462 11.3471 6.95462 11.3977C6.95462 11.4483 6.95213 11.4988 6.94719 11.5492C6.94225 11.5996 6.93481 11.6496 6.92493 11.6992C6.91505 11.7489 6.90277 11.7979 6.88806 11.8463C6.8734 11.8947 6.85634 11.9423 6.83701 11.9891C6.81762 12.0359 6.79599 12.0816 6.77214 12.1262C6.74829 12.1709 6.72231 12.2142 6.69415 12.2563C6.66605 12.2984 6.63593 12.339 6.60384 12.3781C6.5717 12.4173 6.53775 12.4547 6.50195 12.4905C6.46619 12.5263 6.42874 12.5602 6.38959 12.5924C6.35049 12.6245 6.30985 12.6546 6.26777 12.6827C6.2257 12.7109 6.18235 12.7368 6.13767 12.7607C6.09304 12.7845 6.04736 12.8062 6.00061 12.8255C5.9538 12.8449 5.9062 12.8619 5.85781 12.8766C5.80936 12.8913 5.76032 12.9036 5.71065 12.9135C5.66103 12.9234 5.61104 12.9307 5.56062 12.9357C5.51026 12.9407 5.45979 12.9432 5.40916 12.9432C5.29954 12.9432 5.19113 12.9316 5.08396 12.9086C4.97678 12.8855 4.87323 12.8514 4.77331 12.8063C4.67339 12.7612 4.57933 12.7061 4.49114 12.6409C4.40295 12.5758 4.32259 12.5022 4.25008 12.4199Z" fill="white" fill-opacity="0.17"/>
</svg>
