<svg width="17" height="17" viewBox="0 0 17 17" fill="none" xmlns="http://www.w3.org/2000/svg">
<path d="M14.8467 0.566666H2.15332C1.28065 0.566666 0.56665 1.28067 0.56665 2.15333V14.8467C0.56665 15.7193 1.28065 16.4333 2.15332 16.4333H14.8467C15.7193 16.4333 16.4333 15.7193 16.4333 14.8467V2.15333C16.4333 1.28067 15.7193 0.566666 14.8467 0.566666ZM6.44525 13.0747H5.45961V13.6611H6.38051V14.1327H5.45961V15.164H4.87731V12.5987H6.44525V13.0747ZM7.65651 15.164H7.07421V12.5987H7.65651V15.164ZM9.95242 15.164H8.3502V12.5987H8.93251V14.6769H9.95242V15.164ZM12.123 15.164H10.4865V12.5987H12.0697V13.0747H11.0691V13.6075H12.0132V14.0794H11.0691V14.6883H12.123V15.164ZM15.164 11.0387C15.164 11.2107 15.0186 11.356 14.8467 11.356H2.15332C1.98132 11.356 1.83598 11.2107 1.83598 11.0387V2.15333C1.83598 1.98134 1.98132 1.836 2.15332 1.836H14.8467C15.0186 1.836 15.164 1.98134 15.164 2.15333V11.0387Z" fill="white" fill-opacity="0.5"/>
<path d="M5.45963 13.0747H6.44526V12.5987H4.87732V15.164H5.45963V14.1327H6.38053V13.6611H5.45963V13.0747Z" fill="white" fill-opacity="0.17"/>
<path d="M7.07422 15.164H7.65653V12.5987H7.07422V15.164Z" fill="white" fill-opacity="0.17"/>
<path d="M8.35022 15.164H9.95243V14.6769H8.93252V12.5987H8.35022V15.164Z" fill="white" fill-opacity="0.17"/>
<path d="M10.4865 15.164H12.123V14.6883H11.0691V14.0794H12.0132V13.6075H11.0691V13.0747H12.0697V12.5987H10.4865V15.164Z" fill="white" fill-opacity="0.17"/>
<path d="M1.836 11.0387C1.836 11.2107 1.98134 11.356 2.15333 11.356H14.8467C14.9524 11.3596 15.164 11.3011 15.164 11.0387V2.15333C15.164 1.98134 15.0187 1.836 14.8467 1.836H2.15333C1.98134 1.836 1.836 1.98134 1.836 2.15333V11.0387Z" fill="white" fill-opacity="0.17"/>
</svg>
