<svg width="99" height="32" viewBox="0 0 99 32" fill="none" xmlns="http://www.w3.org/2000/svg">
<g clip-path="url(#clip0_10_4)">
<g filter="url(#filter0_d_10_4)">
<path d="M14.2962 16.1349L6.33118 11.4376V20.4237L14.2962 24.9168V16.1349Z" fill="#DBB237"/>
<path d="M14.2963 16.1349L22.2613 11.4376V20.4237L14.2963 24.9168V16.1349Z" fill="#F9DA7E"/>
<path d="M14.2961 16.1348L6.33112 11.4375L14.2961 6.9444L22.2611 11.4375L14.2961 16.1348Z" fill="white"/>
</g>
<path fill-rule="evenodd" clip-rule="evenodd" d="M28.5924 7.86297L14.2962 -0.204163L0 7.86297V23.9972L14.2962 32.0644L28.5924 23.9972V7.86297ZM22.2366 11.4374L14.2961 6.94427L6.35568 11.4374V20.4235L14.2961 24.9166L22.2366 20.4235V11.4374Z" fill="#362F19"/>
<path fill-rule="evenodd" clip-rule="evenodd" d="M13.6719 24.5654L6.33116 20.4244L0 23.9985L14.2962 32.0656L28.5924 23.9985V7.8642L22.2612 11.4382V20.4244L14.9011 24.5762L14.2961 24.9186L13.6719 24.5654Z" fill="#63562E"/>
<path d="M88.9701 26.3817V23.5827H90.2317C90.7407 23.5827 91.1294 23.5402 91.398 23.4554C91.6666 23.3777 91.8645 23.261 91.9918 23.1055C92.126 22.9571 92.2321 22.7804 92.3098 22.5754C92.4017 22.3351 92.4901 22.1584 92.5749 22.0453C92.6597 21.9322 92.7693 21.8544 92.9036 21.812H91.6207L87.772 10.2448H91.3344L92.8718 16.426L93.4019 18.6737H93.4973L93.985 16.4366L95.4588 10.2448H99L95.3315 21.812C95.1053 22.5189 94.8509 23.155 94.5681 23.7205C94.2854 24.2859 93.9497 24.7666 93.5609 25.1624C93.1722 25.5582 92.7057 25.8586 92.1614 26.0636C91.6171 26.2757 90.9739 26.3817 90.2317 26.3817H88.9701Z" fill="white"/>
<path d="M76.8834 21.8122L80.8169 14.9206L80.8487 17.3592L76.9364 10.2449H80.5836L81.7605 12.8001L82.4285 14.4753L83.0116 12.8107L84.1673 10.2449H87.8145L83.9022 17.3486V14.8994L87.8569 21.8122H84.1036L83.0116 19.4055L82.2906 17.7303L81.7075 19.4161L80.6366 21.8122H76.8834Z" fill="white"/>
<path d="M65.9693 21.8124L69.9028 14.9208L69.9346 17.3594L66.0223 10.2451H69.6696L70.8464 12.8003L71.5144 14.4755L72.0975 12.8109L73.2532 10.2451H76.9004L72.9881 17.3488V14.8996L76.9429 21.8124H73.1896L72.0975 19.4056L71.3766 17.7305L70.7934 19.4162L69.7226 21.8124H65.9693Z" fill="white"/>
<path d="M60.9133 21.9713C59.7894 21.9713 58.814 21.7416 57.987 21.2821C57.16 20.8227 56.5168 20.1477 56.0573 19.2571C55.605 18.3594 55.3788 17.2603 55.3788 15.9597C55.3788 14.7298 55.6191 13.6696 56.0998 12.779C56.5804 11.8884 57.2413 11.2063 58.0824 10.7327C58.9235 10.252 59.8813 10.0117 60.9557 10.0117C62.1149 10.0117 63.1044 10.252 63.9244 10.7327C64.7514 11.2063 65.384 11.8884 65.8222 12.779C66.2675 13.6696 66.4902 14.7298 66.4902 15.9597C66.4902 17.2603 66.2463 18.3594 65.7586 19.2571C65.2709 20.1477 64.6065 20.8227 63.7653 21.2821C62.9242 21.7416 61.9735 21.9713 60.9133 21.9713ZM60.9557 19.2465C61.5989 19.2465 62.1361 19.0097 62.5673 18.5361C62.9984 18.0555 63.214 17.1967 63.214 15.9597C63.214 14.8076 62.9878 13.9841 62.5354 13.4893C62.0901 12.9875 61.553 12.7366 60.9239 12.7366C60.2807 12.7366 59.7435 12.9875 59.3123 13.4893C58.8811 13.9841 58.6655 14.8076 58.6655 15.9597C58.6655 17.1472 58.8917 17.9918 59.3441 18.4937C59.7965 18.9955 60.3337 19.2465 60.9557 19.2465Z" fill="white"/>
<path d="M47.7477 21.8111V10.2439H50.6952L50.9708 14.7711L50.78 14.0819C50.8436 13.4741 50.9602 12.9227 51.1299 12.428C51.2995 11.9261 51.5186 11.4949 51.7872 11.1345C52.0558 10.774 52.3774 10.4948 52.752 10.2969C53.1337 10.099 53.5684 10 54.0561 10C54.1975 10 54.3389 10.0071 54.4802 10.0212C54.6287 10.0353 54.7594 10.0601 54.8725 10.0954V13.52C54.6322 13.4564 54.399 13.414 54.1728 13.3928C53.9537 13.3645 53.7345 13.3504 53.5154 13.3504C53.1267 13.3504 52.7732 13.3857 52.4552 13.4564C52.1442 13.5271 51.872 13.6366 51.6388 13.7851C51.4055 13.9264 51.2112 14.1102 51.0556 14.3364V21.8111H47.7477Z" fill="white"/>
<path d="M42.2024 21.9483C41.6299 21.9483 41.1281 21.8493 40.6969 21.6514C40.2728 21.4535 39.93 21.1884 39.6685 20.8562C39.4069 20.524 39.2338 20.16 39.1489 19.7642H37.8554L39.2868 17.983C39.3574 18.2516 39.4741 18.4848 39.6366 18.6827C39.8063 18.8736 40.0219 19.022 40.2834 19.128C40.5449 19.227 40.8524 19.2765 41.2058 19.2765C41.9126 19.2765 42.4569 19.0043 42.8386 18.4601C43.2273 17.9158 43.4217 17.0782 43.4217 15.9473C43.4217 14.88 43.2344 14.0813 42.8598 13.5511C42.4852 13.0139 41.9409 12.7453 41.227 12.7453C40.8807 12.7453 40.5661 12.7948 40.2834 12.8938C40.0077 12.9857 39.7815 13.1023 39.6048 13.2437C39.4281 13.385 39.3221 13.5335 39.2868 13.689V12.8302C39.3857 12.4061 39.5165 12.0208 39.6791 11.6745C39.8487 11.3281 40.0607 11.0348 40.3152 10.7945C40.5697 10.5471 40.8701 10.3563 41.2164 10.222C41.5698 10.0877 41.9763 10.0205 42.4357 10.0205C43.3334 10.0205 44.1003 10.2644 44.7364 10.7521C45.3726 11.2398 45.8603 11.929 46.1996 12.8196C46.5459 13.7031 46.7191 14.7457 46.7191 15.9473C46.7191 16.9015 46.6095 17.7497 46.3904 18.4919C46.1713 19.2341 45.8603 19.8631 45.4574 20.3791C45.0616 20.888 44.588 21.2768 44.0367 21.5454C43.4853 21.814 42.8739 21.9483 42.2024 21.9483ZM36 26.0832V10.2432H39.2231L39.2868 12.0774V18.7569L39.1489 19.7642L39.2868 21.8211V26.0832H36Z" fill="white"/>
</g>
<defs>
<filter id="filter0_d_10_4" x="-18.3175" y="-17.7042" width="65.2274" height="67.2696" filterUnits="userSpaceOnUse" color-interpolation-filters="sRGB">
<feFlood flood-opacity="0" result="BackgroundImageFix"/>
<feColorMatrix in="SourceAlpha" type="matrix" values="0 0 0 0 0 0 0 0 0 0 0 0 0 0 0 0 0 0 127 0" result="hardAlpha"/>
<feOffset/>
<feGaussianBlur stdDeviation="12.3243"/>
<feComposite in2="hardAlpha" operator="out"/>
<feColorMatrix type="matrix" values="0 0 0 0 0.976471 0 0 0 0 0.854902 0 0 0 0 0.494118 0 0 0 0.25 0"/>
<feBlend mode="normal" in2="BackgroundImageFix" result="effect1_dropShadow_10_4"/>
<feBlend mode="normal" in="SourceGraphic" in2="effect1_dropShadow_10_4" result="shape"/>
</filter>
<clipPath id="clip0_10_4">
<rect width="99" height="32" fill="white"/>
</clipPath>
</defs>
</svg>
