<svg width="13" height="17" viewBox="0 0 13 17" fill="none" xmlns="http://www.w3.org/2000/svg">
<path d="M0.860461 2.73735C0.860461 2.40972 0.664907 2.12778 0.384155 2.00187C0.500104 1.91054 0.640617 1.84803 0.795679 1.82588L9.49473 0.583162C10.4654 0.444494 11.3339 1.19771 11.3339 2.17826V2.83887C11.0764 2.77259 10.8064 2.73735 10.5282 2.73735H0.860461Z" fill="white" fill-opacity="0.5"/>
<path d="M4.68726 9.18252C4.68726 8.18142 5.49886 7.36981 6.49996 7.36981C7.50106 7.36981 8.31266 8.18142 8.31266 9.18252C8.31266 10.1836 7.50106 10.9952 6.49996 10.9952C5.49886 10.9952 4.68726 10.1836 4.68726 9.18252Z" fill="white" fill-opacity="0.5"/>
<path fill-rule="evenodd" clip-rule="evenodd" d="M11.3339 3.68053C12.2726 4.01232 12.9451 4.90758 12.9451 5.95994V14.0164C12.9451 15.3513 11.8631 16.4333 10.5282 16.4333H2.47175C1.13691 16.4333 0.0548096 15.3513 0.0548096 14.0164V2.73735C0.0548096 2.88409 0.0940445 3.02167 0.162589 3.14017C0.301893 3.38098 0.562254 3.543 0.860456 3.543H10.5282C10.8107 3.543 11.0819 3.59146 11.3339 3.68053ZM6.49998 6.16135C4.83143 6.16135 3.47881 7.51395 3.47881 9.18252C3.47881 10.8511 4.83143 12.2037 6.49998 12.2037C8.16855 12.2037 9.52115 10.8511 9.52115 9.18252C9.52115 7.51395 8.16855 6.16135 6.49998 6.16135ZM4.88869 13.4122C4.55498 13.4122 4.28445 13.6827 4.28445 14.0164C4.28445 14.3501 4.55498 14.6206 4.88869 14.6206H8.11127C8.44497 14.6206 8.71551 14.3501 8.71551 14.0164C8.71551 13.6827 8.44497 13.4122 8.11127 13.4122H4.88869Z" fill="white" fill-opacity="0.5"/>
<path fill-rule="evenodd" clip-rule="evenodd" d="M6.49999 6.16133C4.83144 6.16133 3.47882 7.51393 3.47882 9.1825C3.47882 10.8511 4.83144 12.2037 6.49999 12.2037C8.16857 12.2037 9.52117 10.8511 9.52117 9.1825C9.52117 7.51393 8.16857 6.16133 6.49999 6.16133ZM4.8887 13.4121C4.555 13.4121 4.28447 13.6827 4.28447 14.0164C4.28447 14.3501 4.555 14.6206 4.8887 14.6206H8.11129C8.44499 14.6206 8.71552 14.3501 8.71552 14.0164C8.71552 13.6827 8.44499 13.4121 8.11129 13.4121H4.8887Z" fill="white" fill-opacity="0.17"/>
</svg>
