<svg width="15" height="11" viewBox="0 0 15 11" fill="none" xmlns="http://www.w3.org/2000/svg">
<g clip-path="url(#clip0_1_564)">
<path d="M0.666687 0.5H14.6667V10.5H0.666687V0.5Z" fill="white"/>
<path d="M0.666687 0.5H14.6667V1.26901H0.666687V0.5ZM0.666687 2.03801H14.6667V2.80702H0.666687V2.03801ZM0.666687 3.57602H14.6667V4.34503H0.666687V3.57602ZM0.666687 5.11404H14.6667V5.88304H0.666687V5.11404ZM0.666687 6.65497H14.6667V7.42398H0.666687V6.65497ZM0.666687 8.19298H14.6667V8.96199H0.666687V8.19298ZM0.666687 9.73099H14.6667V10.5H0.666687V9.73099Z" fill="#D80027"/>
<path d="M0.666687 0.5H7.66669V5.88304H0.666687V0.5Z" fill="#2E52B2"/>
<path d="M1.97119 4.56184L1.86203 4.18757L1.74195 4.56184H1.38171L1.67372 4.78698L1.56456 5.16125L1.86203 4.93026L2.1513 5.16125L2.03941 4.78698L2.33688 4.56184H1.97119ZM3.50764 4.56184L3.39575 4.18757L3.28113 4.56184H2.9209L3.2129 4.78698L3.10374 5.16125L3.39575 4.93026L3.69049 5.16125L3.58132 4.78698L3.87333 4.56184H3.50764ZM5.04955 4.56184L4.9322 4.18757L4.82304 4.56184H4.45462L4.75481 4.78698L4.64019 5.16125L4.9322 4.93026L5.2324 5.16125L5.11778 4.78698L5.40978 4.56184H5.04955ZM6.58327 4.56184L6.47411 4.18757L6.35949 4.56184H5.99653L6.29127 4.78698L6.1821 5.16125L6.47411 4.93026L6.76885 5.16125L6.6515 4.78698L6.95169 4.56184H6.58327ZM3.39575 2.70219L3.28113 3.07646H2.9209L3.2129 3.30745L3.10374 3.67587L3.39575 3.4478L3.69049 3.67587L3.58132 3.30745L3.87333 3.07646H3.50764L3.39575 2.70219ZM1.86203 2.70219L1.74195 3.07646H1.38171L1.67372 3.30745L1.56456 3.67587L1.86203 3.4478L2.1513 3.67587L2.03941 3.30745L2.33688 3.07646H1.97119L1.86203 2.70219ZM4.9322 2.70219L4.82304 3.07646H4.45462L4.75481 3.30745L4.64019 3.67587L4.9322 3.4478L5.2324 3.67587L5.11778 3.30745L5.40978 3.07646H5.04955L4.9322 2.70219ZM6.47411 2.70219L6.35949 3.07646H5.99653L6.29127 3.30745L6.1821 3.67587L6.47411 3.4478L6.76885 3.67587L6.6515 3.30745L6.95169 3.07646H6.58327L6.47411 2.70219ZM1.86203 1.22266L1.74195 1.59108H1.38171L1.67372 1.82207L1.56456 2.19342L1.86203 1.96242L2.1513 2.19342L2.03941 1.82207L2.33688 1.59108H1.97119L1.86203 1.22266ZM3.39575 1.22266L3.28113 1.59108H2.9209L3.2129 1.82207L3.10374 2.19342L3.39575 1.96242L3.69049 2.19342L3.58132 1.82207L3.87333 1.59108H3.50764L3.39575 1.22266ZM4.9322 1.22266L4.82304 1.59108H4.45462L4.75481 1.82207L4.64019 2.19342L4.9322 1.96242L5.2324 2.19342L5.11778 1.82207L5.40978 1.59108H5.04955L4.9322 1.22266ZM6.47411 1.22266L6.35949 1.59108H5.99653L6.29127 1.82207L6.1821 2.19342L6.47411 1.96242L6.76885 2.19342L6.6515 1.82207L6.95169 1.59108H6.58327L6.47411 1.22266Z" fill="white"/>
</g>
<defs>
<clipPath id="clip0_1_564">
<rect width="14" height="10" fill="white" transform="translate(0.666687 0.5)"/>
</clipPath>
</defs>
</svg>
